<?xml version="1.0" encoding="UTF-8"?>
<svg xmlns="http://www.w3.org/2000/svg" width="139" height="52" viewBox="0 0 139 52" fill="none">
  <g clip-path="url(#clip0_3666_9180)">
    <path d="M17.2011 26.4013H14.9976C14.2909 26.4013 13.9375 26.0479 13.9375 25.3412V10.1189C13.9375 9.72981 14.1261 9.53526 14.5033 9.53526C14.7177 9.53526 14.944 9.56504 15.1524 9.53526C16.0934 9.37447 16.683 9.77349 17.2666 10.5298C19.7918 13.8113 22.3943 17.0333 24.9671 20.2731C25.0505 20.3743 25.1398 20.4696 25.3185 20.5291V9.58291H28.5166V26.4072C27.665 26.4072 26.8312 26.4251 25.9974 26.3894C25.8604 26.3894 25.7056 26.175 25.5924 26.032C23.1269 22.9649 20.6672 19.8919 18.2016 16.8189C17.8979 16.4377 17.5882 16.0625 17.2011 15.5861V26.4072V26.4013Z" fill="#202344"></path>
    <path d="M137.02 16.5143C137.02 17.3362 137.008 18.0806 137.02 18.8251C137.026 19.1526 136.824 19.1229 136.621 19.1229H133.25C132.262 19.1229 131.273 19.1288 130.291 19.1229C129.987 19.1229 129.868 19.2062 129.868 19.5397C129.886 20.7547 129.886 21.9755 129.868 23.1905C129.868 23.518 129.969 23.6014 130.285 23.6014C132.786 23.5895 135.287 23.5954 137.795 23.5954H138.301V26.3707H126.688V9.57617H138.122V12.3336C137.967 12.3455 137.795 12.3574 137.628 12.3574C135.21 12.3574 132.786 12.3693 130.362 12.3514C129.969 12.3514 129.856 12.4646 129.862 12.8577C129.886 13.9118 129.886 14.9659 129.862 16.026C129.85 16.4131 129.963 16.5382 130.356 16.5322C132.411 16.5143 134.465 16.5203 136.526 16.5203H137.008L137.02 16.5143Z" fill="#202344"></path>
    <path d="M65.176 24.4421C65.6584 23.5071 66.1169 22.6078 66.5696 21.7145C67.2306 22.0778 67.856 22.4649 68.517 22.7865C69.9404 23.4713 71.4352 23.8346 73.0253 23.6619C73.3946 23.6262 73.7757 23.5369 74.1152 23.388C75.211 22.9056 75.4314 21.4763 74.4666 20.7675C73.8829 20.3388 73.1683 20.0648 72.4774 19.8206C71.1434 19.3501 69.7617 18.9988 68.4455 18.4925C67.183 18.0042 66.2241 17.1287 65.9502 15.7232C65.4201 12.9956 66.8435 10.5955 69.5056 9.79749C72.0725 9.02923 74.5261 9.4223 76.8666 10.667C77.2121 10.8516 77.5396 11.0541 77.9089 11.2685C77.4265 12.1559 76.9679 13.0016 76.545 13.7698C75.6041 13.3529 74.7227 12.8944 73.7936 12.5609C72.7335 12.1737 71.6258 12.1201 70.524 12.4417C69.5711 12.7217 69.1066 13.4601 69.2198 14.4487C69.2793 14.949 69.5473 15.3421 69.9761 15.5327C70.7622 15.8781 71.5722 16.158 72.3881 16.4379C73.5971 16.8548 74.8537 17.1526 76.021 17.6588C77.7957 18.433 78.564 19.8861 78.4925 21.8217C78.421 23.7215 77.5753 25.0972 75.8602 25.9012C74.5083 26.5384 73.0611 26.6754 71.5841 26.592C69.5652 26.4789 67.6773 25.9429 65.9264 24.9305C65.6703 24.7816 65.4321 24.6148 65.1641 24.4421" fill="#202344"></path>
    <path d="M51.5251 9.52824V18.3603C51.5251 19.3251 51.6502 20.272 52.0135 21.1772C52.6626 22.7852 53.9074 23.6607 55.5451 23.6726C57.3199 23.6845 58.6063 22.8567 59.2911 21.2368C59.714 20.2363 59.8271 19.1762 59.8331 18.1042C59.851 15.4361 59.839 12.774 59.839 10.1119V9.56398H63.0252C63.0371 9.68309 63.0491 9.79624 63.0491 9.9094C63.0491 12.7264 63.0848 15.5374 63.0372 18.3543C63.0074 20.2779 62.6798 22.148 61.5304 23.7738C60.375 25.4116 58.7611 26.2573 56.7958 26.4776C55.3784 26.6384 53.9788 26.567 52.6507 26.025C50.3519 25.096 49.0655 23.3093 48.5831 20.9331C48.3985 20.0159 48.3092 19.063 48.2973 18.122C48.2556 15.4302 48.2913 12.7383 48.2734 10.0464C48.2734 9.6414 48.3687 9.50442 48.7916 9.51633C49.6789 9.55207 50.5723 9.52824 51.5192 9.52824" fill="#202344"></path>
    <path d="M81.0685 26.3715V9.57102C81.1757 9.55911 81.265 9.53528 81.3543 9.53528C83.6412 9.53528 85.9282 9.51742 88.2151 9.53528C90.3591 9.55315 91.8658 10.6549 92.8723 12.4714C94.4922 15.4015 93.1701 19.2368 90.1089 20.3922C89.4717 20.6364 88.7392 20.69 88.0483 20.7257C86.9525 20.7793 85.8567 20.7555 84.7609 20.7316C84.3797 20.7257 84.2487 20.8329 84.2487 21.2319C84.2725 22.7863 84.2606 24.3407 84.2606 25.901V26.3656H81.0625L81.0685 26.3715ZM84.2666 15.1632C84.2666 15.9494 84.2785 16.7355 84.2666 17.5157C84.2606 17.8194 84.3678 17.9087 84.6656 17.9087C85.815 17.8968 86.9644 17.9028 88.1138 17.9087C88.6736 17.9087 89.1382 17.7062 89.5253 17.3072C90.5973 16.2114 90.5437 13.9543 89.4121 12.918C89.0191 12.5547 88.5367 12.3701 88.0126 12.3642C86.8929 12.3463 85.7673 12.3642 84.6477 12.3522C84.3678 12.3522 84.2666 12.4535 84.2725 12.7334C84.2844 13.5433 84.2725 14.3533 84.2725 15.1692" fill="#202344"></path>
    <path d="M120.193 12.3523H119.603C116.858 12.3523 114.112 12.3464 111.367 12.3583C111.003 12.3583 110.86 12.2689 110.878 11.8878C110.908 11.2267 110.896 10.5597 110.878 9.89864C110.872 9.61873 110.967 9.52344 111.253 9.52344C115.381 9.52939 119.508 9.52344 123.635 9.52939C123.724 9.52939 123.819 9.54726 123.945 9.55917C123.945 10.3334 123.956 11.0897 123.933 11.8401C123.933 11.9831 123.808 12.132 123.706 12.2511C120.848 15.8303 117.977 19.4096 115.113 22.9948C114.987 23.1496 114.862 23.3104 114.672 23.5546H123.992V26.3656C123.861 26.3775 123.718 26.3894 123.575 26.3894C119.424 26.3894 115.267 26.3894 111.116 26.4014C110.759 26.4014 110.664 26.3061 110.616 25.9368C110.431 24.5373 110.932 23.4832 111.855 22.4112C114.594 19.2428 117.221 15.9673 119.895 12.7394C119.972 12.6501 120.032 12.5488 120.181 12.3463" fill="#202344"></path>
    <path d="M92.5156 26.4003C92.7479 25.7928 92.9504 25.2509 93.1529 24.7149C95.0408 19.7599 96.9406 14.8109 98.8166 9.84994C98.9357 9.54025 99.0846 9.44497 99.4002 9.45688C100.061 9.4807 100.728 9.48665 101.389 9.45688C101.747 9.43901 101.902 9.55216 102.033 9.89163C103.789 14.5369 105.552 19.1763 107.321 23.8156C107.643 24.6553 107.958 25.501 108.304 26.4003C107.202 26.4003 106.166 26.4063 105.129 26.3884C105.028 26.3884 104.891 26.2038 104.838 26.0728C104.397 24.9174 103.956 23.7561 103.539 22.5828C103.432 22.2791 103.283 22.1659 102.956 22.1719C101.24 22.1898 99.5193 22.1838 97.8041 22.1719C97.5183 22.1719 97.3694 22.2612 97.2741 22.5352C96.8572 23.7203 96.4046 24.8876 95.9877 26.0728C95.9043 26.3229 95.7852 26.4063 95.5291 26.4003C94.5584 26.3884 93.5876 26.4003 92.5275 26.4003M100.49 13.3101C100.448 13.3101 100.413 13.3041 100.371 13.2982C99.5729 15.4779 98.7749 17.6636 97.9649 19.8731H102.795C102.009 17.6457 101.252 15.4719 100.49 13.3101Z" fill="#202344"></path>
    <path d="M46.0777 13.0493C45.1725 13.6746 44.3745 14.2226 43.5288 14.8062C43.4454 14.6692 43.3739 14.5501 43.3025 14.431C42.3139 12.8171 40.8071 12.2215 38.9966 12.3108C36.6799 12.424 35.1017 14.2047 34.6074 16.3368C34.1072 18.4867 34.4764 20.458 35.9534 22.1374C38.282 24.7876 42.3496 23.8407 43.5228 21.2858C43.5407 21.2501 43.5705 21.2203 43.6122 21.1607C44.4221 21.6253 45.2261 22.0898 46.0301 22.5424C46.2862 22.6913 46.1611 22.858 46.0777 23.0188C45.506 24.0968 44.6365 24.8829 43.5824 25.4487C38.6869 28.081 33.6009 25.9192 31.6952 20.9523C30.0098 16.5571 32.0823 11.5783 36.3583 10.006C39.3599 8.89832 42.2722 9.17228 44.7497 11.4413C45.238 11.888 45.6072 12.4716 46.0777 13.0434" fill="#202344"></path>
    <path d="M10.3373 9.55859H7.10938V26.371H10.3373V9.55859Z" fill="#202344"></path>
    <path d="M0.5 0C1.15511 0.821861 2.09608 1.05413 3.00131 1.12559C4.0078 1.20897 4.91303 1.22088 5.88974 1.45314C6.65204 1.63777 7.42626 2.00105 8.03968 2.51323C8.5995 2.97776 9.05212 3.87108 9.23674 4.49641C9.46305 5.27063 9.52856 5.59223 9.68935 6.41409C9.74295 6.68804 9.70127 6.85479 9.34989 6.91435C7.89079 7.15257 6.55676 7.15257 5.15125 6.68804C3.89464 6.27711 2.87029 5.37187 2.10203 4.33561C1.26231 3.20407 1.00026 2.22736 0.654843 0.887371C0.61911 0.762306 0.511911 0.23822 0.5 0Z" fill="#F37F20"></path>
    <path d="M138.308 31.9688H7.07812V33.4934H138.308V31.9688Z" fill="#202344"></path>
    <path d="M7.07812 45.5479C7.07812 42.2426 9.65091 39.7949 13.1706 39.7949C16.6903 39.7949 19.2571 42.2248 19.2571 45.5479C19.2571 48.8711 16.6665 51.301 13.1706 51.301C9.67473 51.301 7.07812 48.8533 7.07812 45.5479ZM16.6486 45.5479C16.6486 43.4337 15.1538 41.9866 13.1647 41.9866C11.1755 41.9866 9.68068 43.4337 9.68068 45.5479C9.68068 47.6622 11.1755 49.1093 13.1647 49.1093C15.1538 49.1093 16.6486 47.6622 16.6486 45.5479Z" fill="#202344"></path>
    <path d="M23.8834 42.0451V44.9871H29.029V47.0596H23.8834V51.1094H21.3047V39.9785H29.7139V42.0451H23.8834Z" fill="#202344"></path>
    <path d="M34.0475 42.0451V44.9871H39.1931V47.0596H34.0475V51.1094H31.4688V39.9785H39.8779V42.0451H34.0475Z" fill="#202344"></path>
    <path d="M44.2037 39.9785H41.625V51.1094H44.2037V39.9785Z" fill="#202344"></path>
    <path d="M46.0216 45.5479C46.0216 42.195 48.5944 39.7949 52.0605 39.7949C53.9841 39.7949 55.5921 40.4917 56.6403 41.7662L54.9846 43.2908C54.2402 42.4332 53.2992 41.9866 52.1855 41.9866C50.1011 41.9866 48.6241 43.4457 48.6241 45.5479C48.6241 47.6502 50.1011 49.1093 52.1855 49.1093C53.2992 49.1093 54.2402 48.6627 54.9846 47.7932L56.6403 49.3178C55.5921 50.6042 53.9841 51.3069 52.0426 51.3069C48.5944 51.3069 46.0156 48.9069 46.0156 45.5539" fill="#202344"></path>
    <path d="M66.8442 49.0428V51.1094H58.2266V39.9785H66.6417V42.051H60.7874V44.463H65.9568V46.47H60.7874V49.0428H66.8442Z" fill="#202344"></path>
    <path d="M72.5859 50.0143L73.4614 48.0728C74.4024 48.7577 75.796 49.2342 77.1359 49.2342C78.6606 49.2342 79.2799 48.7279 79.2799 48.0431C79.2799 45.9586 72.8122 47.3939 72.8122 43.2608C72.8122 41.3669 74.3428 39.7947 77.5052 39.7947C78.9047 39.7947 80.3341 40.1282 81.3703 40.7833L80.5782 42.7367C79.542 42.1471 78.4819 41.8612 77.4933 41.8612C75.9687 41.8612 75.3791 42.433 75.3791 43.1298C75.3791 45.1844 81.8527 43.767 81.8527 47.8525C81.8527 49.7106 80.3102 51.3007 77.13 51.3007C75.3672 51.3007 73.5865 50.7766 72.5978 50.0143" fill="#202344"></path>
    <path d="M93.2555 44.0164C93.2555 46.4938 91.3973 48.0423 88.4196 48.0423H86.1803V51.1094H83.6016V39.9785H88.4196C91.3914 39.9785 93.2555 41.521 93.2555 44.0164ZM90.6469 44.0164C90.6469 42.7955 89.8489 42.0749 88.2766 42.0749H86.1803V45.94H88.2766C89.8489 45.94 90.6469 45.2253 90.6469 44.0164Z" fill="#202344"></path>
    <path d="M102.445 48.7271H97.2753L96.2867 51.1152H93.6484L98.6094 39.9844H101.152L106.131 51.1152H103.427L102.439 48.7271H102.445ZM101.635 46.7737L99.866 42.5155L98.1032 46.7737H101.635Z" fill="#202344"></path>
    <path d="M106.6 45.5477C106.6 42.1948 109.172 39.7947 112.639 39.7947C114.562 39.7947 116.17 40.4915 117.218 41.766L115.563 43.2906C114.818 42.433 113.877 41.9863 112.764 41.9863C110.679 41.9863 109.202 43.4454 109.202 45.5477C109.202 47.65 110.679 49.1091 112.764 49.1091C113.877 49.1091 114.818 48.6624 115.563 47.7929L117.218 49.3175C116.17 50.6039 114.562 51.3067 112.621 51.3067C109.172 51.3067 106.594 48.9066 106.594 45.5537" fill="#202344"></path>
    <path d="M127.43 49.0428V51.1094H118.812V39.9785H127.228V42.051H121.373V44.463H126.543V46.47H121.373V49.0428H127.43Z" fill="#202344"></path>
    <path d="M128.75 50.0146L129.625 48.0731C130.56 48.758 131.96 49.2344 133.3 49.2344C134.825 49.2344 135.444 48.7282 135.444 48.0433C135.444 45.9589 128.976 47.3942 128.976 43.261C128.976 41.3672 130.507 39.7949 133.669 39.7949C135.069 39.7949 136.498 40.1284 137.534 40.7835L136.736 42.7369C135.706 42.1474 134.64 41.8615 133.651 41.8615C132.127 41.8615 131.537 42.4332 131.537 43.13C131.537 45.1847 138.005 43.7672 138.005 47.8527C138.005 49.7108 136.462 51.301 133.282 51.301C131.519 51.301 129.739 50.7769 128.75 50.0146Z" fill="#202344"></path>
  </g>
  <defs>
    <clipPath id="clip0_3666_9180">
      <rect width="137.811" height="51.3008" fill="white" transform="translate(0.5)"></rect>
    </clipPath>
  </defs>
</svg>
